<svg width="1015.3000000000001pt" viewBox="0.00 0.00 922.65 630.00" xmlns="http://www.w3.org/2000/svg" xmlns:xlink="http://www.w3.org/1999/xlink">
<g id="graph0" class="graph" transform="scale(1 1) rotate(0) translate(4 626)">
<title>dependency-cruiser output</title>
<polygon fill="#eeeeee" stroke="none" points="-4,4 -4,-626 918.65,-626 918.65,4 -4,4"></polygon>
<g id="clust1" class="cluster">
<title>cluster_@ns-lab-knx</title>
<path fill="#eeeeee" stroke="#808080" stroke-opacity="0.250980" d="M848.65,-283C848.65,-283 894.65,-283 894.65,-283 900.65,-283 906.65,-289 906.65,-295 906.65,-295 906.65,-398 906.65,-398 906.65,-404 900.65,-410 894.65,-410 894.65,-410 848.65,-410 848.65,-410 842.65,-410 836.65,-404 836.65,-398 836.65,-398 836.65,-295 836.65,-295 836.65,-289 842.65,-283 848.65,-283"></path>
<text text-anchor="middle" x="871.65" y="-397.9" font-family="Helvetica,sans-Serif" font-weight="bold" font-size="9.00">@ns-lab-knx</text>
</g>
<g id="clust2" class="cluster">
<title>cluster_apps</title>
<path fill="#eeeeee" stroke="#808080" stroke-opacity="0.250980" d="M20,-108C20,-108 816.65,-108 816.65,-108 822.65,-108 828.65,-114 828.65,-120 828.65,-120 828.65,-350 828.65,-350 828.65,-356 822.65,-362 816.65,-362 816.65,-362 20,-362 20,-362 14,-362 8,-356 8,-350 8,-350 8,-120 8,-120 8,-114 14,-108 20,-108"></path>
<text text-anchor="middle" x="418.32" y="-349.9" font-family="Helvetica,sans-Serif" font-weight="bold" font-size="9.00">apps</text>
</g>
<g id="clust3" class="cluster">
<title>cluster_apps/web</title>
<path fill="#eeeeee" stroke="#808080" stroke-opacity="0.250980" d="M28,-116C28,-116 808.65,-116 808.65,-116 814.65,-116 820.65,-122 820.65,-128 820.65,-128 820.65,-323 820.65,-323 820.65,-329 814.65,-335 808.65,-335 808.65,-335 28,-335 28,-335 22,-335 16,-329 16,-323 16,-323 16,-128 16,-128 16,-122 22,-116 28,-116"></path>
<text text-anchor="middle" x="418.32" y="-322.9" font-family="Helvetica,sans-Serif" font-weight="bold" font-size="9.00">web</text>
</g>
<g id="clust4" class="cluster">
<title>cluster_apps/web/src</title>
<path fill="#eeeeee" stroke="#808080" stroke-opacity="0.250980" d="M36,-124C36,-124 800.65,-124 800.65,-124 806.65,-124 812.65,-130 812.65,-136 812.65,-136 812.65,-296 812.65,-296 812.65,-302 806.65,-308 800.65,-308 800.65,-308 36,-308 36,-308 30,-308 24,-302 24,-296 24,-296 24,-136 24,-136 24,-130 30,-124 36,-124"></path>
<text text-anchor="middle" x="418.32" y="-295.9" font-family="Helvetica,sans-Serif" font-weight="bold" font-size="9.00">src</text>
</g>
<g id="clust5" class="cluster">
<title>cluster_apps/web/src/components</title>
<path fill="#eeeeee" stroke="#808080" stroke-opacity="0.250980" d="M532.59,-132C532.59,-132 792.65,-132 792.65,-132 798.65,-132 804.65,-138 804.65,-144 804.65,-144 804.65,-269 804.65,-269 804.65,-275 798.65,-281 792.65,-281 792.65,-281 532.59,-281 532.59,-281 526.59,-281 520.59,-275 520.59,-269 520.59,-269 520.59,-144 520.59,-144 520.59,-138 526.59,-132 532.59,-132"></path>
<text text-anchor="middle" x="662.62" y="-268.9" font-family="Helvetica,sans-Serif" font-weight="bold" font-size="9.00">components</text>
</g>
<g id="clust6" class="cluster">
<title>cluster_apps/web/src/components/nodes</title>
<path fill="#eeeeee" stroke="#808080" stroke-opacity="0.250980" d="M604.59,-201C604.59,-201 784.65,-201 784.65,-201 790.65,-201 796.65,-207 796.65,-213 796.65,-213 796.65,-242 796.65,-242 796.65,-248 790.65,-254 784.65,-254 784.65,-254 604.59,-254 604.59,-254 598.59,-254 592.59,-248 592.59,-242 592.59,-242 592.59,-213 592.59,-213 592.59,-207 598.59,-201 604.59,-201"></path>
<text text-anchor="middle" x="694.62" y="-241.9" font-family="Helvetica,sans-Serif" font-weight="bold" font-size="9.00">nodes</text>
</g>
<g id="clust7" class="cluster">
<title>cluster_apps/web/src/components/user</title>
<path fill="#eeeeee" stroke="#808080" stroke-opacity="0.250980" d="M604.59,-140C604.59,-140 764.63,-140 764.63,-140 770.63,-140 776.63,-146 776.63,-152 776.63,-152 776.63,-181 776.63,-181 776.63,-187 770.63,-193 764.63,-193 764.63,-193 604.59,-193 604.59,-193 598.59,-193 592.59,-187 592.59,-181 592.59,-181 592.59,-152 592.59,-152 592.59,-146 598.59,-140 604.59,-140"></path>
<text text-anchor="middle" x="684.61" y="-180.9" font-family="Helvetica,sans-Serif" font-weight="bold" font-size="9.00">user</text>
</g>
<g id="clust8" class="cluster">
<title>cluster_apps/web/src/features</title>
<path fill="#eeeeee" stroke="#808080" stroke-opacity="0.250980" d="M119.03,-132C119.03,-132 500.59,-132 500.59,-132 506.59,-132 512.59,-138 512.59,-144 512.59,-144 512.59,-269 512.59,-269 512.59,-275 506.59,-281 500.59,-281 500.59,-281 119.03,-281 119.03,-281 113.03,-281 107.03,-275 107.03,-269 107.03,-269 107.03,-144 107.03,-144 107.03,-138 113.03,-132 119.03,-132"></path>
<text text-anchor="middle" x="309.81" y="-268.9" font-family="Helvetica,sans-Serif" font-weight="bold" font-size="9.00">features</text>
</g>
<g id="clust9" class="cluster">
<title>cluster_apps/web/src/features/board-surface</title>
<path fill="#eeeeee" stroke="#808080" stroke-opacity="0.250980" d="M352.55,-201C352.55,-201 492.59,-201 492.59,-201 498.59,-201 504.59,-207 504.59,-213 504.59,-213 504.59,-242 504.59,-242 504.59,-248 498.59,-254 492.59,-254 492.59,-254 352.55,-254 352.55,-254 346.55,-254 340.55,-248 340.55,-242 340.55,-242 340.55,-213 340.55,-213 340.55,-207 346.55,-201 352.55,-201"></path>
<text text-anchor="middle" x="422.57" y="-241.9" font-family="Helvetica,sans-Serif" font-weight="bold" font-size="9.00">board-surface</text>
</g>
<g id="clust10" class="cluster">
<title>cluster_apps/web/src/features/web</title>
<path fill="#eeeeee" stroke="#808080" stroke-opacity="0.250980" d="M191.03,-168C191.03,-168 320.55,-168 320.55,-168 326.55,-168 332.55,-174 332.55,-180 332.55,-180 332.55,-209 332.55,-209 332.55,-215 326.55,-221 320.55,-221 320.55,-221 191.03,-221 191.03,-221 185.03,-221 179.03,-215 179.03,-209 179.03,-209 179.03,-180 179.03,-180 179.03,-174 185.03,-168 191.03,-168"></path>
<text text-anchor="middle" x="255.79" y="-208.9" font-family="Helvetica,sans-Serif" font-weight="bold" font-size="9.00">web</text>
</g>
<g id="clust11" class="cluster">
<title>cluster_apps/web/src/features/user-admin</title>
<path fill="#eeeeee" stroke="#808080" stroke-opacity="0.250980" d="M352.55,-140C352.55,-140 491.83,-140 491.83,-140 497.83,-140 503.83,-146 503.83,-152 503.83,-152 503.83,-181 503.83,-181 503.83,-187 497.83,-193 491.83,-193 491.83,-193 352.55,-193 352.55,-193 346.55,-193 340.55,-187 340.55,-181 340.55,-181 340.55,-152 340.55,-152 340.55,-146 346.55,-140 352.55,-140"></path>
<text text-anchor="middle" x="422.19" y="-180.9" font-family="Helvetica,sans-Serif" font-weight="bold" font-size="9.00">user-admin</text>
</g>
<g id="clust12" class="cluster">
<title>cluster_node_modules</title>
<path fill="#eeeeee" stroke="#808080" stroke-opacity="0.250980" d="M848.65,-41C848.65,-41 894.65,-41 894.65,-41 900.65,-41 906.65,-47 906.65,-53 906.65,-53 906.65,-119 906.65,-119 906.65,-125 900.65,-131 894.65,-131 894.65,-131 848.65,-131 848.65,-131 842.65,-131 836.65,-125 836.65,-119 836.65,-119 836.65,-53 836.65,-53 836.65,-47 842.65,-41 848.65,-41"></path>
<text text-anchor="middle" x="871.65" y="-118.9" font-family="Helvetica,sans-Serif" font-weight="bold" font-size="9.00">node_modules</text>
</g>
<!-- @ns&#45;lab&#45;knx/logic -->
<g id="node1" class="node">
<title>@ns-lab-knx/logic</title>
<g id="a_node1"><a xlink:title="logic">
<path fill="#ffffcc" stroke="black" d="M892.38,-309.4C892.38,-309.4 850.92,-309.4 850.92,-309.4 847.78,-309.4 844.65,-306.27 844.65,-303.13 844.65,-303.13 844.65,-296.87 844.65,-296.87 844.65,-293.73 847.78,-290.6 850.92,-290.6 850.92,-290.6 892.38,-290.6 892.38,-290.6 895.52,-290.6 898.65,-293.73 898.65,-296.87 898.65,-296.87 898.65,-303.13 898.65,-303.13 898.65,-306.27 895.52,-309.4 892.38,-309.4"></path>
<text text-anchor="start" x="862.39" y="-297.3" font-family="Helvetica,sans-Serif" font-size="9.00">logic</text>
</a>
</g>
</g>
<!-- @ns&#45;lab&#45;knx/types -->
<g id="node2" class="node">
<title>@ns-lab-knx/types</title>
<g id="a_node2"><a xlink:title="types">
<path fill="#ffffcc" stroke="black" d="M892.38,-383.4C892.38,-383.4 850.92,-383.4 850.92,-383.4 847.78,-383.4 844.65,-380.27 844.65,-377.13 844.65,-377.13 844.65,-370.87 844.65,-370.87 844.65,-367.73 847.78,-364.6 850.92,-364.6 850.92,-364.6 892.38,-364.6 892.38,-364.6 895.52,-364.6 898.65,-367.73 898.65,-370.87 898.65,-370.87 898.65,-377.13 898.65,-377.13 898.65,-380.27 895.52,-383.4 892.38,-383.4"></path>
<text text-anchor="start" x="860.89" y="-371.3" font-family="Helvetica,sans-Serif" font-size="9.00">types</text>
</a>
</g>
</g>
<!-- @ns&#45;lab&#45;knx/web -->
<g id="node3" class="node">
<title>@ns-lab-knx/web</title>
<g id="a_node3"><a xlink:title="web">
<path fill="#ffffcc" stroke="black" d="M892.38,-346.4C892.38,-346.4 850.92,-346.4 850.92,-346.4 847.78,-346.4 844.65,-343.27 844.65,-340.13 844.65,-340.13 844.65,-333.87 844.65,-333.87 844.65,-330.73 847.78,-327.6 850.92,-327.6 850.92,-327.6 892.38,-327.6 892.38,-327.6 895.52,-327.6 898.65,-330.73 898.65,-333.87 898.65,-333.87 898.65,-340.13 898.65,-340.13 898.65,-343.27 895.52,-346.4 892.38,-346.4"></path>
<text text-anchor="start" x="863.39" y="-334.3" font-family="Helvetica,sans-Serif" font-size="9.00">web</text>
</a>
</g>
</g>
<!-- apps/main&#45;app/src/components/index.ts -->
<g id="node4" class="node">
<title>apps/web/src/components/index.ts</title>
<g id="a_node4"><a xlink:href="apps/web/src/components/index.ts" xlink:title="index.ts">
<path fill="#ddfeff" stroke="black" d="M576.32,-196.4C576.32,-196.4 534.85,-196.4 534.85,-196.4 531.72,-196.4 528.59,-193.27 528.59,-190.13 528.59,-190.13 528.59,-183.87 528.59,-183.87 528.59,-180.73 531.72,-177.6 534.85,-177.6 534.85,-177.6 576.32,-177.6 576.32,-177.6 579.45,-177.6 582.59,-180.73 582.59,-183.87 582.59,-183.87 582.59,-190.13 582.59,-190.13 582.59,-193.27 579.45,-196.4 576.32,-196.4"></path>
<text text-anchor="start" x="540.08" y="-184.3" font-family="Helvetica,sans-Serif" font-size="9.00">index.ts</text>
</a>
</g>
</g>
<!-- apps/main&#45;app/src/components/nodes/index.ts -->
<g id="node5" class="node">
<title>apps/web/src/components/nodes/index.ts</title>
<g id="a_node5"><a xlink:href="apps/web/src/components/nodes/index.ts" xlink:title="index.ts">
<path fill="#ddfeff" stroke="black" d="M648.32,-227.4C648.32,-227.4 606.85,-227.4 606.85,-227.4 603.72,-227.4 600.59,-224.27 600.59,-221.13 600.59,-221.13 600.59,-214.87 600.59,-214.87 600.59,-211.73 603.72,-208.6 606.85,-208.6 606.85,-208.6 648.32,-208.6 648.32,-208.6 651.45,-208.6 654.59,-211.73 654.59,-214.87 654.59,-214.87 654.59,-221.13 654.59,-221.13 654.59,-224.27 651.45,-227.4 648.32,-227.4"></path>
<text text-anchor="start" x="612.08" y="-215.3" font-family="Helvetica,sans-Serif" font-size="9.00">index.ts</text>
</a>
</g>
</g>
<!-- apps/main&#45;app/src/components/index.ts&#45;&gt;apps/main&#45;app/src/components/nodes/index.ts -->
<g id="edge1" class="edge">
<title>apps/web/src/components/index.ts-&gt;apps/web/src/components/nodes/index.ts</title>
<path fill="none" stroke="#283178" stroke-opacity="0.450980" d="M578.73,-196.81C583.84,-199.07 589.37,-201.52 594.8,-203.92"></path>
<polygon fill="#283178" fill-opacity="0.450980" stroke="#283178" stroke-opacity="0.450980" points="602.47,-211.15 594.74,-203.9 605.3,-204.75 602.47,-211.15"></polygon>
</g>
<!-- apps/main&#45;app/src/components/user/index.ts -->
<g id="node6" class="node">
<title>apps/web/src/components/user/index.ts</title>
<g id="a_node6"><a xlink:href="apps/web/src/components/user/index.ts" xlink:title="index.ts">
<path fill="#ddfeff" stroke="black" d="M648.32,-166.4C648.32,-166.4 606.85,-166.4 606.85,-166.4 603.72,-166.4 600.59,-163.27 600.59,-160.13 600.59,-160.13 600.59,-153.87 600.59,-153.87 600.59,-150.73 603.72,-147.6 606.85,-147.6 606.85,-147.6 648.32,-147.6 648.32,-147.6 651.45,-147.6 654.59,-150.73 654.59,-153.87 654.59,-153.87 654.59,-160.13 654.59,-160.13 654.59,-163.27 651.45,-166.4 648.32,-166.4"></path>
<text text-anchor="start" x="612.08" y="-154.3" font-family="Helvetica,sans-Serif" font-size="9.00">index.ts</text>
</a>
</g>
</g>
<!-- apps/main&#45;app/src/components/index.ts&#45;&gt;apps/main&#45;app/src/components/user/index.ts -->
<g id="edge2" class="edge">
<title>apps/web/src/components/index.ts-&gt;apps/web/src/components/user/index.ts</title>
<path fill="none" stroke="#283178" stroke-opacity="0.450980" d="M579.51,-177.18C584.27,-175.14 589.37,-172.95 594.4,-170.8"></path>
<polygon fill="#283178" fill-opacity="0.450980" stroke="#283178" stroke-opacity="0.450980" points="604.77,-170.16 594.2,-170.88 602.01,-163.72 604.77,-170.16"></polygon>
</g>
<!-- apps/main&#45;app/src/components/nodes/IdeaNode.component.tsx -->
<g id="node7" class="node">
<title>apps/web/src/components/nodes/IdeaNode.component.tsx</title>
<g id="a_node7"><a xlink:href="apps/web/src/components/nodes/IdeaNode.component.tsx" xlink:title="IdeaNode.component.tsx">
<path fill="#bbfeff" stroke="black" d="M782.38,-227.4C782.38,-227.4 678.85,-227.4 678.85,-227.4 675.72,-227.4 672.59,-224.27 672.59,-221.13 672.59,-221.13 672.59,-214.87 672.59,-214.87 672.59,-211.73 675.72,-208.6 678.85,-208.6 678.85,-208.6 782.38,-208.6 782.38,-208.6 785.52,-208.6 788.65,-211.73 788.65,-214.87 788.65,-214.87 788.65,-221.13 788.65,-221.13 788.65,-224.27 785.52,-227.4 782.38,-227.4"></path>
<text text-anchor="start" x="680.59" y="-215.3" font-family="Helvetica,sans-Serif" font-size="9.00">IdeaNode.component.tsx</text>
</a>
</g>
</g>
<!-- apps/main&#45;app/src/components/nodes/index.ts&#45;&gt;apps/main&#45;app/src/components/nodes/IdeaNode.component.tsx -->
<g id="edge6" class="edge">
<title>apps/web/src/components/nodes/index.ts-&gt;apps/web/src/components/nodes/IdeaNode.component.tsx</title>
<path fill="none" stroke="#283178" stroke-opacity="0.450980" d="M654.87,-218C657.05,-218 659.32,-218 661.64,-218"></path>
<polygon fill="#283178" fill-opacity="0.450980" stroke="#283178" stroke-opacity="0.450980" points="671.6,-221.5 661.6,-218 671.6,-214.5 671.6,-221.5"></polygon>
</g>
<!-- apps/main&#45;app/src/components/user/UsersTable.tsx -->
<g id="node8" class="node">
<title>apps/web/src/components/user/UsersTable.tsx</title>
<g id="a_node8"><a xlink:href="apps/web/src/components/user/UsersTable.tsx" xlink:title="UsersTable.tsx">
<path fill="#bbfeff" stroke="black" d="M762.36,-166.4C762.36,-166.4 698.88,-166.4 698.88,-166.4 695.74,-166.4 692.61,-163.27 692.61,-160.13 692.61,-160.13 692.61,-153.87 692.61,-153.87 692.61,-150.73 695.74,-147.6 698.88,-147.6 698.88,-147.6 762.36,-147.6 762.36,-147.6 765.49,-147.6 768.63,-150.73 768.63,-153.87 768.63,-153.87 768.63,-160.13 768.63,-160.13 768.63,-163.27 765.49,-166.4 762.36,-166.4"></path>
<text text-anchor="start" x="700.61" y="-154.3" font-family="Helvetica,sans-Serif" font-size="9.00">UsersTable.tsx</text>
</a>
</g>
</g>
<!-- apps/main&#45;app/src/components/user/index.ts&#45;&gt;apps/main&#45;app/src/components/user/UsersTable.tsx -->
<g id="edge12" class="edge">
<title>apps/web/src/components/user/index.ts-&gt;apps/web/src/components/user/UsersTable.tsx</title>
<path fill="none" stroke="#283178" stroke-opacity="0.450980" d="M654.87,-157C663.19,-157 672.67,-157 682.01,-157"></path>
<polygon fill="#283178" fill-opacity="0.450980" stroke="#283178" stroke-opacity="0.450980" points="691.94,-160.5 681.94,-157 691.94,-153.5 691.94,-160.5"></polygon>
</g>
<!-- apps/main&#45;app/src/components/nodes/IdeaNode.component.tsx&#45;&gt;@ns&#45;lab&#45;knx/logic -->
<g id="edge3" class="edge">
<title>apps/web/src/components/nodes/IdeaNode.component.tsx-&gt;@ns-lab-knx/logic</title>
<path fill="none" stroke="#283178" stroke-opacity="0.450980" d="M748.39,-227.89C772.32,-242 816.47,-268.05 844.66,-284.67"></path>
<polygon fill="#283178" fill-opacity="0.450980" stroke="#283178" stroke-opacity="0.450980" points="842.56,-287.49 852.95,-289.56 846.11,-281.46 842.56,-287.49"></polygon>
</g>
<!-- apps/main&#45;app/src/components/nodes/IdeaNode.component.tsx&#45;&gt;@ns&#45;lab&#45;knx/types -->
<g id="edge4" class="edge">
<title>apps/web/src/components/nodes/IdeaNode.component.tsx-&gt;@ns-lab-knx/types</title>
<path fill="none" stroke="#283178" stroke-opacity="0.450980" d="M737.13,-227.71C751.17,-251.75 790.41,-315 836.65,-355 837.9,-356.08 839.21,-357.12 840.58,-358.13"></path>
<polygon fill="#283178" fill-opacity="0.450980" stroke="#283178" stroke-opacity="0.450980" points="838.41,-360.9 848.71,-363.4 842.22,-355.03 838.41,-360.9"></polygon>
</g>
<!-- apps/main&#45;app/src/components/nodes/IdeaNode.component.tsx&#45;&gt;@ns&#45;lab&#45;knx/web -->
<g id="edge5" class="edge">
<title>apps/web/src/components/nodes/IdeaNode.component.tsx-&gt;@ns-lab-knx/web</title>
<path fill="none" stroke="#283178" stroke-opacity="0.450980" d="M740.2,-227.66C757.29,-246.53 797.33,-289.02 836.65,-318 838.18,-319.13 839.79,-320.24 841.44,-321.33"></path>
<polygon fill="#283178" fill-opacity="0.450980" stroke="#283178" stroke-opacity="0.450980" points="839.4,-324.19 849.77,-326.37 843.03,-318.2 839.4,-324.19"></polygon>
</g>
<!-- apps/main&#45;app/src/components/user/UsersTable.tsx&#45;&gt;@ns&#45;lab&#45;knx/logic -->
<g id="edge7" class="edge">
<title>apps/web/src/components/user/UsersTable.tsx-&gt;@ns-lab-knx/logic</title>
<path fill="none" stroke="#283178" stroke-opacity="0.450980" d="M768.74,-164.89C788.69,-170.79 812.45,-180.73 828.65,-197 851.3,-219.74 862.25,-256.37 867.13,-279.27"></path>
<polygon fill="#283178" fill-opacity="0.450980" stroke="#283178" stroke-opacity="0.450980" points="863.66,-279.75 868.98,-288.92 870.54,-278.44 863.66,-279.75"></polygon>
</g>
<!-- apps/main&#45;app/src/components/user/UsersTable.tsx&#45;&gt;@ns&#45;lab&#45;knx/types -->
<g id="edge8" class="edge">
<title>apps/web/src/components/user/UsersTable.tsx-&gt;@ns-lab-knx/types</title>
<path fill="none" stroke="#283178" stroke-opacity="0.450980" d="M769.06,-162.47C790.17,-167.64 814.98,-177.66 828.65,-197 848.94,-225.71 818.1,-325.14 836.65,-355 836.93,-355.46 837.24,-355.91 837.55,-356.35"></path>
<polygon fill="#283178" fill-opacity="0.450980" stroke="#283178" stroke-opacity="0.450980" points="835.05,-358.8 844.72,-363.13 839.86,-353.72 835.05,-358.8"></polygon>
</g>
<!-- apps/main&#45;app/src/components/user/UsersTable.tsx&#45;&gt;@ns&#45;lab&#45;knx/web -->
<g id="edge9" class="edge">
<title>apps/web/src/components/user/UsersTable.tsx-&gt;@ns-lab-knx/web</title>
<path fill="none" stroke="#283178" stroke-opacity="0.450980" d="M768.95,-162.55C790.02,-167.75 814.83,-177.76 828.65,-197 844.37,-218.89 822.25,-295.22 836.65,-318 836.94,-318.46 837.24,-318.9 837.56,-319.34"></path>
<polygon fill="#283178" fill-opacity="0.450980" stroke="#283178" stroke-opacity="0.450980" points="835.08,-321.81 844.76,-326.11 839.87,-316.71 835.08,-321.81"></polygon>
</g>
<!-- node_modules/react -->
<g id="node9" class="node">
<title>node_modules/react</title>
<g id="a_node9"><a xlink:href="https://www.npmjs.com/package/react" xlink:title="react">
<polygon fill="#c40b0a" fill-opacity="0.101961" stroke="black" points="898.65,-67.4 846.74,-67.4 844.65,-65.31 844.65,-48.6 896.56,-48.6 898.65,-50.69 898.65,-67.4"></polygon>
<polyline fill="none" stroke="black" points="896.56,-65.31 844.65,-65.31"></polyline>
<polyline fill="none" stroke="black" points="896.56,-65.31 896.56,-48.6"></polyline>
<polyline fill="none" stroke="black" points="896.56,-65.31 898.65,-67.4"></polyline>
<text text-anchor="start" x="861.64" y="-55.3" font-family="Helvetica,sans-Serif" font-size="9.00" fill="#c40b0a">react</text>
</a>
</g>
</g>
<!-- apps/main&#45;app/src/components/user/UsersTable.tsx&#45;&gt;node_modules/react -->
<g id="edge10" class="edge">
<title>apps/web/src/components/user/UsersTable.tsx-&gt;node_modules/react</title>
<path fill="none" stroke="#283178" stroke-opacity="0.450980" d="M743.19,-147.32C762.13,-131.67 801.18,-100.25 836.65,-77 838.47,-75.8 840.38,-74.61 842.31,-73.43"></path>
<polygon fill="#283178" fill-opacity="0.450980" stroke="#283178" stroke-opacity="0.450980" points="843.82,-76.6 850.71,-68.55 840.3,-70.55 843.82,-76.6"></polygon>
</g>
<!-- node_modules/rsuite -->
<g id="node10" class="node">
<title>node_modules/rsuite</title>
<g id="a_node10"><a xlink:href="https://www.npmjs.com/package/rsuite" xlink:title="rsuite">
<polygon fill="#c40b0a" fill-opacity="0.101961" stroke="black" points="898.65,-104.4 846.74,-104.4 844.65,-102.31 844.65,-85.6 896.56,-85.6 898.65,-87.69 898.65,-104.4"></polygon>
<polyline fill="none" stroke="black" points="896.56,-102.31 844.65,-102.31"></polyline>
<polyline fill="none" stroke="black" points="896.56,-102.31 896.56,-85.6"></polyline>
<polyline fill="none" stroke="black" points="896.56,-102.31 898.65,-104.4"></polyline>
<text text-anchor="start" x="860.65" y="-92.3" font-family="Helvetica,sans-Serif" font-size="9.00" fill="#c40b0a">rsuite</text>
</a>
</g>
</g>
<!-- apps/main&#45;app/src/components/user/UsersTable.tsx&#45;&gt;node_modules/rsuite -->
<g id="edge11" class="edge">
<title>apps/web/src/components/user/UsersTable.tsx-&gt;node_modules/rsuite</title>
<path fill="none" stroke="#283178" stroke-opacity="0.450980" d="M768.82,-149.36C787.43,-144.69 809.92,-137.71 828.65,-128 836.8,-123.78 844.93,-117.88 851.83,-112.24"></path>
<polygon fill="#283178" fill-opacity="0.450980" stroke="#283178" stroke-opacity="0.450980" points="853.93,-115.06 859.23,-105.88 849.36,-109.75 853.93,-115.06"></polygon>
</g>
<!-- apps/main&#45;app/src/features/board&#45;surface/IdeasBoard.tsx -->
<g id="node11" class="node">
<title>apps/web/src/features/board-surface/IdeasBoard.tsx</title>
<g id="a_node11"><a xlink:href="apps/web/src/features/board-surface/IdeasBoard.tsx" xlink:title="IdeasBoard.tsx">
<path fill="#bbfeff" stroke="black" d="M490.32,-227.4C490.32,-227.4 426.82,-227.4 426.82,-227.4 423.69,-227.4 420.55,-224.27 420.55,-221.13 420.55,-221.13 420.55,-214.87 420.55,-214.87 420.55,-211.73 423.69,-208.6 426.82,-208.6 426.82,-208.6 490.32,-208.6 490.32,-208.6 493.45,-208.6 496.59,-211.73 496.59,-214.87 496.59,-214.87 496.59,-221.13 496.59,-221.13 496.59,-224.27 493.45,-227.4 490.32,-227.4"></path>
<text text-anchor="start" x="428.55" y="-215.3" font-family="Helvetica,sans-Serif" font-size="9.00">IdeasBoard.tsx</text>
</a>
</g>
</g>
<!-- apps/main&#45;app/src/features/board&#45;surface/IdeasBoard.tsx&#45;&gt;@ns&#45;lab&#45;knx/logic -->
<g id="edge14" class="edge">
<title>apps/web/src/features/board-surface/IdeasBoard.tsx-&gt;@ns-lab-knx/logic</title>
<path fill="none" stroke="#283178" stroke-opacity="0.450980" d="M460.55,-227.63C463.75,-253.17 476.32,-322.61 520.59,-351 624.68,-417.77 781.58,-347.96 843.83,-315.11"></path>
<polygon fill="#283178" fill-opacity="0.450980" stroke="#283178" stroke-opacity="0.450980" points="845.18,-318.36 852.32,-310.53 841.86,-312.19 845.18,-318.36"></polygon>
</g>
<!-- apps/main&#45;app/src/features/board&#45;surface/IdeasBoard.tsx&#45;&gt;@ns&#45;lab&#45;knx/types -->
<g id="edge15" class="edge">
<title>apps/web/src/features/board-surface/IdeasBoard.tsx-&gt;@ns-lab-knx/types</title>
<path fill="none" stroke="#283178" stroke-opacity="0.450980" d="M460.03,-227.66C461.98,-258.15 471.87,-353.63 520.59,-410 569.72,-466.85 599.37,-467.12 672.59,-484 740.17,-499.58 771.52,-523.34 828.65,-484 857.73,-463.97 866.69,-420.89 869.44,-394.99"></path>
<polygon fill="#283178" fill-opacity="0.450980" stroke="#283178" stroke-opacity="0.450980" points="872.9,-395.58 870.23,-385.33 865.93,-395.01 872.9,-395.58"></polygon>
</g>
<!-- apps/main&#45;app/src/features/board&#45;surface/IdeasBoard.tsx&#45;&gt;@ns&#45;lab&#45;knx/web -->
<g id="edge16" class="edge">
<title>apps/web/src/features/board-surface/IdeasBoard.tsx-&gt;@ns-lab-knx/web</title>
<path fill="none" stroke="#283178" stroke-opacity="0.450980" d="M460.19,-227.66C462.53,-255.55 473.29,-336.77 520.59,-377 624.98,-465.81 704.76,-421.62 828.65,-363 832.92,-360.98 832.79,-358.72 836.65,-356 838.39,-354.77 840.22,-353.56 842.08,-352.38"></path>
<polygon fill="#283178" fill-opacity="0.450980" stroke="#283178" stroke-opacity="0.450980" points="843.4,-355.66 850.21,-347.55 839.83,-349.64 843.4,-355.66"></polygon>
</g>
<!-- apps/main&#45;app/src/features/board&#45;surface/IdeasBoard.tsx&#45;&gt;apps/main&#45;app/src/components/index.ts -->
<g id="edge13" class="edge">
<title>apps/web/src/features/board-surface/IdeasBoard.tsx-&gt;apps/web/src/components/index.ts</title>
<path fill="none" stroke="#283178" stroke-opacity="0.450980" d="M489.89,-208.11C498.7,-205.23 508.41,-202.06 517.58,-199.07"></path>
<polygon fill="#283178" fill-opacity="0.450980" stroke="#283178" stroke-opacity="0.450980" points="518.52,-202.45 526.95,-196.02 516.35,-195.79 518.52,-202.45"></polygon>
</g>
<!-- apps/main&#45;app/src/features/board&#45;surface/index.ts -->
<g id="node12" class="node">
<title>apps/web/src/features/board-surface/index.ts</title>
<g id="a_node12"><a xlink:href="apps/web/src/features/board-surface/index.ts" xlink:title="index.ts">
<path fill="#ddfeff" stroke="black" d="M396.29,-227.4C396.29,-227.4 354.82,-227.4 354.82,-227.4 351.69,-227.4 348.55,-224.27 348.55,-221.13 348.55,-221.13 348.55,-214.87 348.55,-214.87 348.55,-211.73 351.69,-208.6 354.82,-208.6 354.82,-208.6 396.29,-208.6 396.29,-208.6 399.42,-208.6 402.55,-211.73 402.55,-214.87 402.55,-214.87 402.55,-221.13 402.55,-221.13 402.55,-224.27 399.42,-227.4 396.29,-227.4"></path>
<text text-anchor="start" x="360.04" y="-215.3" font-family="Helvetica,sans-Serif" font-size="9.00">index.ts</text>
</a>
</g>
</g>
<!-- apps/main&#45;app/src/features/board&#45;surface/index.ts&#45;&gt;apps/main&#45;app/src/features/board&#45;surface/IdeasBoard.tsx -->
<g id="edge17" class="edge">
<title>apps/web/src/features/board-surface/index.ts-&gt;apps/web/src/features/board-surface/IdeasBoard.tsx</title>
<path fill="none" stroke="#283178" stroke-opacity="0.450980" d="M402.63,-218C405.01,-218 407.47,-218 409.96,-218"></path>
<polygon fill="#283178" fill-opacity="0.450980" stroke="#283178" stroke-opacity="0.450980" points="419.83,-221.5 409.83,-218 419.83,-214.5 419.83,-221.5"></polygon>
</g>
<!-- apps/main&#45;app/src/features/index.ts -->
<g id="node13" class="node">
<title>apps/web/src/features/index.ts</title>
<g id="a_node13"><a xlink:href="apps/web/src/features/index.ts" xlink:title="index.ts">
<path fill="#ddfeff" stroke="black" d="M162.76,-194.4C162.76,-194.4 121.3,-194.4 121.3,-194.4 118.16,-194.4 115.03,-191.27 115.03,-188.13 115.03,-188.13 115.03,-181.87 115.03,-181.87 115.03,-178.73 118.16,-175.6 121.3,-175.6 121.3,-175.6 162.76,-175.6 162.76,-175.6 165.9,-175.6 169.03,-178.73 169.03,-181.87 169.03,-181.87 169.03,-188.13 169.03,-188.13 169.03,-191.27 165.9,-194.4 162.76,-194.4"></path>
<text text-anchor="start" x="126.52" y="-182.3" font-family="Helvetica,sans-Serif" font-size="9.00">index.ts</text>
</a>
</g>
</g>
<!-- apps/main&#45;app/src/features/index.ts&#45;&gt;apps/main&#45;app/src/features/board&#45;surface/index.ts -->
<g id="edge18" class="edge">
<title>apps/web/src/features/index.ts-&gt;apps/web/src/features/board-surface/index.ts</title>
<path fill="none" stroke="#283178" stroke-opacity="0.450980" d="M148.43,-194.73C154.46,-204.46 165.2,-218.84 179.03,-225 230.44,-247.9 297.21,-238.22 337.92,-228.55"></path>
<polygon fill="#283178" fill-opacity="0.450980" stroke="#283178" stroke-opacity="0.450980" points="348.54,-229.49 337.99,-228.53 346.84,-222.7 348.54,-229.49"></polygon>
</g>
<!-- apps/main&#45;app/src/features/main&#45;app/index.ts -->
<g id="node14" class="node">
<title>apps/web/src/features/web/index.ts</title>
<g id="a_node14"><a xlink:href="apps/web/src/features/web/index.ts" xlink:title="index.ts">
<path fill="#ddfeff" stroke="black" d="M234.76,-194.4C234.76,-194.4 193.3,-194.4 193.3,-194.4 190.16,-194.4 187.03,-191.27 187.03,-188.13 187.03,-188.13 187.03,-181.87 187.03,-181.87 187.03,-178.73 190.16,-175.6 193.3,-175.6 193.3,-175.6 234.76,-175.6 234.76,-175.6 237.9,-175.6 241.03,-178.73 241.03,-181.87 241.03,-181.87 241.03,-188.13 241.03,-188.13 241.03,-191.27 237.9,-194.4 234.76,-194.4"></path>
<text text-anchor="start" x="198.52" y="-182.3" font-family="Helvetica,sans-Serif" font-size="9.00">index.ts</text>
</a>
</g>
</g>
<!-- apps/main&#45;app/src/features/index.ts&#45;&gt;apps/main&#45;app/src/features/main&#45;app/index.ts -->
<g id="edge19" class="edge">
<title>apps/web/src/features/index.ts-&gt;apps/web/src/features/web/index.ts</title>
<path fill="none" stroke="#283178" stroke-opacity="0.450980" d="M169.49,-185C171.82,-185 174.2,-185 176.59,-185"></path>
<polygon fill="#283178" fill-opacity="0.450980" stroke="#283178" stroke-opacity="0.450980" points="186.49,-188.5 176.49,-185 186.49,-181.5 186.49,-188.5"></polygon>
</g>
<!-- apps/main&#45;app/src/features/user&#45;admin/index.ts -->
<g id="node15" class="node">
<title>apps/web/src/features/user-admin/index.ts</title>
<g id="a_node15"><a xlink:href="apps/web/src/features/user-admin/index.ts" xlink:title="index.ts">
<path fill="#ddfeff" stroke="black" d="M396.29,-166.4C396.29,-166.4 354.82,-166.4 354.82,-166.4 351.69,-166.4 348.55,-163.27 348.55,-160.13 348.55,-160.13 348.55,-153.87 348.55,-153.87 348.55,-150.73 351.69,-147.6 354.82,-147.6 354.82,-147.6 396.29,-147.6 396.29,-147.6 399.42,-147.6 402.55,-150.73 402.55,-153.87 402.55,-153.87 402.55,-160.13 402.55,-160.13 402.55,-163.27 399.42,-166.4 396.29,-166.4"></path>
<text text-anchor="start" x="360.04" y="-154.3" font-family="Helvetica,sans-Serif" font-size="9.00">index.ts</text>
</a>
</g>
</g>
<!-- apps/main&#45;app/src/features/index.ts&#45;&gt;apps/main&#45;app/src/features/user&#45;admin/index.ts -->
<g id="edge20" class="edge">
<title>apps/web/src/features/index.ts-&gt;apps/web/src/features/user-admin/index.ts</title>
<path fill="none" stroke="#283178" stroke-opacity="0.450980" d="M156.32,-175.12C162.82,-170.87 170.97,-166.34 179.03,-164 232.67,-148.46 298.07,-150 337.99,-153.08"></path>
<polygon fill="#283178" fill-opacity="0.450980" stroke="#283178" stroke-opacity="0.450980" points="347.5,-157.4 337.83,-153.07 348.09,-150.43 347.5,-157.4"></polygon>
</g>
<!-- apps/main&#45;app/src/features/main&#45;app/MainApp.tsx -->
<g id="node16" class="node">
<title>apps/web/src/features/web/MainApp.tsx</title>
<g id="a_node16"><a xlink:href="apps/web/src/features/web/MainApp.tsx" xlink:title="MainApp.tsx">
<path fill="#bbfeff" stroke="black" d="M318.29,-194.4C318.29,-194.4 265.3,-194.4 265.3,-194.4 262.16,-194.4 259.03,-191.27 259.03,-188.13 259.03,-188.13 259.03,-181.87 259.03,-181.87 259.03,-178.73 262.16,-175.6 265.3,-175.6 265.3,-175.6 318.29,-175.6 318.29,-175.6 321.42,-175.6 324.55,-178.73 324.55,-181.87 324.55,-181.87 324.55,-188.13 324.55,-188.13 324.55,-191.27 321.42,-194.4 318.29,-194.4"></path>
<text text-anchor="start" x="267.03" y="-182.3" font-family="Helvetica,sans-Serif" font-size="9.00">MainApp.tsx</text>
</a>
</g>
</g>
<!-- apps/main&#45;app/src/features/main&#45;app/index.ts&#45;&gt;apps/main&#45;app/src/features/main&#45;app/MainApp.tsx -->
<g id="edge28" class="edge">
<title>apps/web/src/features/web/index.ts-&gt;apps/web/src/features/web/MainApp.tsx</title>
<path fill="none" stroke="#283178" stroke-opacity="0.450980" d="M241.53,-185C243.69,-185 245.92,-185 248.16,-185"></path>
<polygon fill="#283178" fill-opacity="0.450980" stroke="#283178" stroke-opacity="0.450980" points="258.21,-188.5 248.21,-185 258.21,-181.5 258.21,-188.5"></polygon>
</g>
<!-- apps/main&#45;app/src/features/user&#45;admin/UserAdmin.tsx -->
<g id="node17" class="node">
<title>apps/web/src/features/user-admin/UserAdmin.tsx</title>
<g id="a_node17"><a xlink:href="apps/web/src/features/user-admin/UserAdmin.tsx" xlink:title="UserAdmin.tsx">
<path fill="#bbfeff" stroke="black" d="M489.56,-166.4C489.56,-166.4 427.58,-166.4 427.58,-166.4 424.45,-166.4 421.31,-163.27 421.31,-160.13 421.31,-160.13 421.31,-153.87 421.31,-153.87 421.31,-150.73 424.45,-147.6 427.58,-147.6 427.58,-147.6 489.56,-147.6 489.56,-147.6 492.69,-147.6 495.83,-150.73 495.83,-153.87 495.83,-153.87 495.83,-160.13 495.83,-160.13 495.83,-163.27 492.69,-166.4 489.56,-166.4"></path>
<text text-anchor="start" x="429.31" y="-154.3" font-family="Helvetica,sans-Serif" font-size="9.00">UserAdmin.tsx</text>
</a>
</g>
</g>
<!-- apps/main&#45;app/src/features/user&#45;admin/index.ts&#45;&gt;apps/main&#45;app/src/features/user&#45;admin/UserAdmin.tsx -->
<g id="edge35" class="edge">
<title>apps/web/src/features/user-admin/index.ts-&gt;apps/web/src/features/user-admin/UserAdmin.tsx</title>
<path fill="none" stroke="#283178" stroke-opacity="0.450980" d="M402.63,-157C405.18,-157 407.82,-157 410.5,-157"></path>
<polygon fill="#283178" fill-opacity="0.450980" stroke="#283178" stroke-opacity="0.450980" points="420.41,-160.5 410.41,-157 420.41,-153.5 420.41,-160.5"></polygon>
</g>
<!-- apps/main&#45;app/src/features/main&#45;app/MainApp.tsx&#45;&gt;@ns&#45;lab&#45;knx/logic -->
<g id="edge23" class="edge">
<title>apps/web/src/features/web/MainApp.tsx-&gt;@ns-lab-knx/logic</title>
<path fill="none" stroke="#283178" stroke-opacity="0.450980" d="M292.85,-194.87C293.77,-250.94 305.98,-527 457.57,-527 457.57,-527 457.57,-527 556.59,-527 697.77,-527 748.45,-479.2 828.65,-363 839.94,-346.64 825.09,-335.17 836.65,-319 837.05,-318.43 837.48,-317.88 837.93,-317.34"></path>
<polygon fill="#283178" fill-opacity="0.450980" stroke="#283178" stroke-opacity="0.450980" points="840.15,-320.05 845.41,-310.85 835.56,-314.76 840.15,-320.05"></polygon>
</g>
<!-- apps/main&#45;app/src/features/main&#45;app/MainApp.tsx&#45;&gt;@ns&#45;lab&#45;knx/types -->
<g id="edge24" class="edge">
<title>apps/web/src/features/web/MainApp.tsx-&gt;@ns-lab-knx/types</title>
<path fill="none" stroke="#283178" stroke-opacity="0.450980" d="M293.11,-194.85C294.88,-245.41 304.82,-475.86 340.55,-536 373.52,-591.49 393.03,-622 457.57,-622 457.57,-622 457.57,-622 628.59,-622 730.92,-622 764.43,-587.69 828.65,-508 855.58,-474.58 865.33,-423.76 868.8,-395.27"></path>
<polygon fill="#283178" fill-opacity="0.450980" stroke="#283178" stroke-opacity="0.450980" points="872.27,-395.71 869.83,-385.4 865.31,-394.98 872.27,-395.71"></polygon>
</g>
<!-- apps/main&#45;app/src/features/main&#45;app/MainApp.tsx&#45;&gt;@ns&#45;lab&#45;knx/web -->
<g id="edge25" class="edge">
<title>apps/web/src/features/web/MainApp.tsx-&gt;@ns-lab-knx/web</title>
<path fill="none" stroke="#283178" stroke-opacity="0.450980" d="M293.26,-194.8C295.63,-241.29 307.53,-439.39 340.55,-490 374.31,-541.74 395.8,-565 457.57,-565 457.57,-565 457.57,-565 556.59,-565 687.86,-565 754.2,-558.12 828.65,-450 840.54,-432.73 825.28,-373.62 836.65,-356 836.94,-355.55 837.25,-355.1 837.57,-354.67"></path>
<polygon fill="#283178" fill-opacity="0.450980" stroke="#283178" stroke-opacity="0.450980" points="839.88,-357.3 844.81,-347.93 835.11,-352.18 839.88,-357.3"></polygon>
</g>
<!-- apps/main&#45;app/src/features/main&#45;app/MainApp.tsx&#45;&gt;node_modules/react -->
<g id="edge26" class="edge">
<title>apps/web/src/features/web/MainApp.tsx-&gt;node_modules/react</title>
<path fill="none" stroke="#283178" stroke-opacity="0.450980" d="M293.69,-175.31C296.38,-151.35 306.48,-88.67 340.55,-52 379.29,-10.31 400.66,0 457.57,0 457.57,0 457.57,0 628.59,0 704.04,0 789.17,-26.98 835.68,-44.14"></path>
<polygon fill="#283178" fill-opacity="0.450980" stroke="#283178" stroke-opacity="0.450980" points="834.36,-47.38 844.95,-47.63 836.83,-40.83 834.36,-47.38"></polygon>
</g>
<!-- apps/main&#45;app/src/features/main&#45;app/MainApp.tsx&#45;&gt;node_modules/rsuite -->
<g id="edge27" class="edge">
<title>apps/web/src/features/web/MainApp.tsx-&gt;node_modules/rsuite</title>
<path fill="none" stroke="#283178" stroke-opacity="0.450980" d="M297.54,-175.35C314.38,-142.65 374.76,-38 457.57,-38 457.57,-38 457.57,-38 556.59,-38 658.15,-38 775.27,-67.22 833.61,-83.82"></path>
<polygon fill="#283178" fill-opacity="0.450980" stroke="#283178" stroke-opacity="0.450980" points="832.44,-87.12 843.02,-86.53 834.38,-80.4 832.44,-87.12"></polygon>
</g>
<!-- apps/main&#45;app/src/features/main&#45;app/MainApp.tsx&#45;&gt;apps/main&#45;app/src/features/board&#45;surface/index.ts -->
<g id="edge21" class="edge">
<title>apps/web/src/features/web/MainApp.tsx-&gt;apps/web/src/features/board-surface/index.ts</title>
<path fill="none" stroke="#283178" stroke-opacity="0.450980" d="M324.18,-194.84C327.03,-195.86 329.85,-196.92 332.55,-198 336.54,-199.59 340.68,-201.38 344.73,-203.23"></path>
<polygon fill="#283178" fill-opacity="0.450980" stroke="#283178" stroke-opacity="0.450980" points="343.22,-206.38 353.76,-207.47 346.19,-200.05 343.22,-206.38"></polygon>
</g>
<!-- apps/main&#45;app/src/features/main&#45;app/MainApp.tsx&#45;&gt;apps/main&#45;app/src/features/user&#45;admin/index.ts -->
<g id="edge22" class="edge">
<title>apps/web/src/features/web/MainApp.tsx-&gt;apps/web/src/features/user-admin/index.ts</title>
<path fill="none" stroke="#283178" stroke-opacity="0.450980" d="M323.21,-175.15C326.37,-174.1 329.53,-173.03 332.55,-172 334.31,-171.4 336.12,-170.78 337.94,-170.14"></path>
<polygon fill="#283178" fill-opacity="0.450980" stroke="#283178" stroke-opacity="0.450980" points="338.68,-173.59 346.95,-166.97 336.35,-166.99 338.68,-173.59"></polygon>
</g>
<!-- apps/main&#45;app/src/features/user&#45;admin/UserAdmin.tsx&#45;&gt;@ns&#45;lab&#45;knx/logic -->
<g id="edge30" class="edge">
<title>apps/web/src/features/user-admin/UserAdmin.tsx-&gt;@ns-lab-knx/logic</title>
<path fill="none" stroke="#283178" stroke-opacity="0.450980" d="M479.89,-166.86C491.53,-173.63 505.24,-183.8 512.59,-197 522.13,-214.16 506.37,-271.45 520.59,-285 564.4,-326.76 751.62,-312.66 832.83,-304.31"></path>
<polygon fill="#283178" fill-opacity="0.450980" stroke="#283178" stroke-opacity="0.450980" points="833.15,-307.8 842.73,-303.26 832.42,-300.84 833.15,-307.8"></polygon>
</g>
<!-- apps/main&#45;app/src/features/user&#45;admin/UserAdmin.tsx&#45;&gt;@ns&#45;lab&#45;knx/types -->
<g id="edge31" class="edge">
<title>apps/web/src/features/user-admin/UserAdmin.tsx-&gt;@ns-lab-knx/types</title>
<path fill="none" stroke="#283178" stroke-opacity="0.450980" d="M480.05,-166.77C491.75,-173.52 505.46,-183.68 512.59,-197 527.17,-224.29 501.01,-312.04 520.59,-336 596.04,-428.34 759.75,-402.02 833.42,-384.26"></path>
<polygon fill="#283178" fill-opacity="0.450980" stroke="#283178" stroke-opacity="0.450980" points="834.12,-387.69 842.97,-381.87 832.42,-380.9 834.12,-387.69"></polygon>
</g>
<!-- apps/main&#45;app/src/features/user&#45;admin/UserAdmin.tsx&#45;&gt;@ns&#45;lab&#45;knx/web -->
<g id="edge32" class="edge">
<title>apps/web/src/features/user-admin/UserAdmin.tsx-&gt;@ns-lab-knx/web</title>
<path fill="none" stroke="#283178" stroke-opacity="0.450980" d="M479.99,-166.8C491.66,-173.56 505.38,-183.73 512.59,-197 524.6,-219.12 503.77,-291.26 520.59,-310 561.19,-355.24 751,-346.38 832.88,-340.25"></path>
<polygon fill="#283178" fill-opacity="0.450980" stroke="#283178" stroke-opacity="0.450980" points="832.94,-343.76 842.64,-339.49 832.4,-336.78 832.94,-343.76"></polygon>
</g>
<!-- apps/main&#45;app/src/features/user&#45;admin/UserAdmin.tsx&#45;&gt;apps/main&#45;app/src/components/index.ts -->
<g id="edge29" class="edge">
<title>apps/web/src/features/user-admin/UserAdmin.tsx-&gt;apps/web/src/components/index.ts</title>
<path fill="none" stroke="#283178" stroke-opacity="0.450980" d="M490.68,-166.82C499.21,-169.51 508.53,-172.46 517.36,-175.25"></path>
<polygon fill="#283178" fill-opacity="0.450980" stroke="#283178" stroke-opacity="0.450980" points="516.15,-178.53 526.74,-178.21 518.26,-171.86 516.15,-178.53"></polygon>
</g>
<!-- apps/main&#45;app/src/features/user&#45;admin/UserAdmin.tsx&#45;&gt;node_modules/react -->
<g id="edge33" class="edge">
<title>apps/web/src/features/user-admin/UserAdmin.tsx-&gt;node_modules/react</title>
<path fill="none" stroke="#283178" stroke-opacity="0.450980" d="M468.92,-147.29C480.11,-136.31 499.93,-118.83 520.59,-110 627.22,-64.41 766.91,-57.78 832.95,-57.44"></path>
<polygon fill="#283178" fill-opacity="0.450980" stroke="#283178" stroke-opacity="0.450980" points="832.88,-60.94 842.88,-57.44 832.88,-53.94 832.88,-60.94"></polygon>
</g>
<!-- apps/main&#45;app/src/features/user&#45;admin/UserAdmin.tsx&#45;&gt;node_modules/rsuite -->
<g id="edge34" class="edge">
<title>apps/web/src/features/user-admin/UserAdmin.tsx-&gt;node_modules/rsuite</title>
<path fill="none" stroke="#283178" stroke-opacity="0.450980" d="M476.05,-147.22C487.99,-140.63 504.75,-132.36 520.59,-128 631.12,-97.55 767.88,-94.02 832.9,-94.3"></path>
<polygon fill="#283178" fill-opacity="0.450980" stroke="#283178" stroke-opacity="0.450980" points="832.64,-97.79 842.66,-94.37 832.69,-90.79 832.64,-97.79"></polygon>
</g>
<!-- apps/main&#45;app/src/index&#45;app.ts -->
<g id="node18" class="node">
<title>apps/web/src/index-app.ts</title>
<g id="a_node18"><a xlink:href="apps/web/src/index-app.ts" xlink:title="index-app.ts">
<path fill="#ddfeff" stroke="black" d="M90.76,-194.4C90.76,-194.4 38.27,-194.4 38.27,-194.4 35.13,-194.4 32,-191.27 32,-188.13 32,-188.13 32,-181.87 32,-181.87 32,-178.73 35.13,-175.6 38.27,-175.6 38.27,-175.6 90.76,-175.6 90.76,-175.6 93.9,-175.6 97.03,-178.73 97.03,-181.87 97.03,-181.87 97.03,-188.13 97.03,-188.13 97.03,-191.27 93.9,-194.4 90.76,-194.4"></path>
<text text-anchor="start" x="40" y="-182.3" font-family="Helvetica,sans-Serif" font-size="9.00">index-app.ts</text>
</a>
</g>
</g>
<!-- apps/main&#45;app/src/index&#45;app.ts&#45;&gt;apps/main&#45;app/src/features/index.ts -->
<g id="edge36" class="edge">
<title>apps/web/src/index-app.ts-&gt;apps/web/src/features/index.ts</title>
<path fill="none" stroke="#283178" stroke-opacity="0.450980" d="M97.1,-185C99.1,-185 101.13,-185 103.15,-185"></path>
<polygon fill="#283178" fill-opacity="0.450980" stroke="#283178" stroke-opacity="0.450980" points="103.08,-188.5 113.08,-185 103.08,-181.5 103.08,-188.5"></polygon>
</g>
</g>
</svg>